<svg xmlns="http://www.w3.org/2000/svg" width="375" height="327" fill="none"><g clip-path="url(#a)"><rect width="340" height="195" x="18" y="40" fill="url(#b)" rx="18"/><path fill="#fff" d="M42.869 75.383H40.69a2.13 2.13 0 0 0-.244-.75 1.908 1.908 0 0 0-.472-.568 2.078 2.078 0 0 0-.666-.358 2.547 2.547 0 0 0-.81-.124c-.527 0-.986.131-1.378.393-.39.258-.694.636-.91 1.133-.215.494-.322 1.094-.322 1.8 0 .726.107 1.336.323 1.83.218.493.523.866.914 1.118.392.252.844.378 1.358.378.288 0 .555-.038.8-.114a2.1 2.1 0 0 0 .661-.333c.193-.15.352-.33.478-.542a2.12 2.12 0 0 0 .268-.726l2.178.01a4.063 4.063 0 0 1-1.322 2.51 4.236 4.236 0 0 1-1.343.806c-.517.195-1.102.293-1.755.293-.908 0-1.72-.205-2.436-.616-.713-.411-1.276-1.006-1.69-1.785-.412-.779-.617-1.722-.617-2.829 0-1.11.209-2.055.626-2.834.418-.779.985-1.372 1.7-1.78.717-.41 1.522-.616 2.417-.616.59 0 1.137.083 1.64.249a4.16 4.16 0 0 1 1.348.725c.39.315.71.701.954 1.159.249.457.408.98.478 1.57zm10.339-3.565V82H51.08v-8.432h-4.116V82h-2.128V71.818h8.372zm11.546 5.091c0 1.11-.21 2.055-.632 2.834-.417.779-.987 1.374-1.71 1.785-.719.407-1.528.611-2.426.611-.905 0-1.717-.205-2.436-.616-.72-.411-1.288-1.006-1.705-1.785-.418-.779-.627-1.722-.627-2.829 0-1.11.21-2.055.627-2.834.417-.779.986-1.372 1.705-1.78.72-.41 1.531-.616 2.436-.616.898 0 1.707.206 2.426.617.723.407 1.293 1 1.71 1.78.421.778.632 1.723.632 2.833zm-2.183 0c0-.72-.107-1.326-.323-1.82-.212-.493-.512-.868-.9-1.123-.387-.255-.841-.383-1.362-.383-.52 0-.974.128-1.362.383-.388.255-.69.63-.905 1.124-.212.493-.318 1.1-.318 1.82 0 .718.106 1.325.318 1.819.215.493.517.868.905 1.123s.842.383 1.362.383c.52 0 .975-.127 1.362-.383.388-.255.688-.63.9-1.123.216-.494.323-1.1.323-1.82zM66.49 82V71.818h4.017c.772 0 1.43.148 1.973.443.544.291.958.697 1.243 1.218.289.517.433 1.113.433 1.79 0 .676-.146 1.272-.438 1.79a3.016 3.016 0 0 1-1.267 1.207c-.55.289-1.217.433-2 .433h-2.56v-1.725h2.213c.414 0 .756-.072 1.024-.214.272-.146.474-.346.607-.602a1.88 1.88 0 0 0 .203-.89c0-.338-.067-.633-.203-.885a1.361 1.361 0 0 0-.607-.591c-.272-.143-.616-.214-1.034-.214H68.64V82h-2.153zm8.816-8.407v-1.775h8.362v1.775H80.55V82h-2.128v-8.407h-3.117zm10.6 8.536c-.329 0-.61-.116-.846-.348a1.161 1.161 0 0 1-.348-.845c0-.325.116-.603.348-.835a1.16 1.16 0 0 1 .845-.348c.318 0 .597.116.835.348.24.232.358.51.358.835 0 .219-.056.42-.169.602a1.275 1.275 0 0 1-.432.432 1.14 1.14 0 0 1-.592.16zm7.852-10.31 2.461 7.735h.095l2.465-7.736h2.387L97.655 82H94.88l-3.515-10.182h2.391zm10.926 0V82h-2.153V71.818h2.153zm4.064 0V82h-2.153V71.818h2.153zm-74.862 17h2.655l2.804 6.84h.12l2.803-6.84h2.655V99h-2.088v-6.627h-.085l-2.635 6.577h-1.421l-2.636-6.602h-.084V99h-2.088V88.818zM46.835 99V88.818h6.861v1.775h-4.708v2.426h4.355v1.775h-4.355v2.431h4.728V99h-6.88zm16.468-10.182V99h-2.088V88.818h2.088zM55.066 99l3.191-5.37-3.057-4.812h2.65l2.286 4.191h4.301l2.227-4.19h2.64l-2.983 4.797L69.453 99h-2.57l-2.153-4.002h-4.907L57.616 99h-2.55zm15.26 2.456v-4.171h.69c.236-.17.451-.408.647-.716.195-.312.363-.74.502-1.288.14-.55.238-1.27.298-2.157l.288-4.306h6.737v8.467h1.114v4.161h-2.069V99h-6.14v2.456h-2.068zm3.176-4.171h3.918v-6.692h-2.73l-.159 2.53c-.043.673-.114 1.27-.214 1.79-.096.52-.213.976-.352 1.368-.136.387-.29.722-.463 1.004zm9.647 1.854v-1.75h.552c.275 0 .497-.033.666-.1a.936.936 0 0 0 .403-.302 1.79 1.79 0 0 0 .258-.508l.125-.333-3.7-7.328h2.228l2.396 5.011 2.004-5.01h2.197L86.768 97c-.169.378-.37.73-.601 1.054a2.61 2.61 0 0 1-.88.786c-.358.199-.815.298-1.372.298h-.766zM91.583 99V88.818h2.153v4.201h4.37v-4.2h2.147V99h-2.147v-4.206h-4.37V99h-2.153zm12.34 0h-2.307l3.515-10.182h2.775L111.415 99h-2.306l-2.551-7.855h-.079L103.923 99zm-.144-4.002h5.449v1.68h-5.449v-1.68zM112.781 99V88.818h4.017c.772 0 1.43.148 1.974.443.543.291.958.697 1.243 1.218.288.517.432 1.113.432 1.79 0 .676-.146 1.272-.437 1.79a3.024 3.024 0 0 1-1.268 1.207c-.55.289-1.216.433-1.999.433h-2.56v-1.725h2.212c.415 0 .756-.072 1.024-.214.272-.146.474-.346.607-.602.136-.258.204-.555.204-.89 0-.338-.068-.633-.204-.885a1.363 1.363 0 0 0-.607-.591c-.271-.143-.616-.214-1.034-.214h-1.451V99h-2.153zm18.561-5.09c0 1.11-.211 2.054-.631 2.833-.418.779-.988 1.374-1.711 1.785-.719.407-1.528.611-2.426.611-.905 0-1.717-.205-2.436-.616-.719-.411-1.288-1.006-1.705-1.785-.418-.779-.627-1.722-.627-2.829 0-1.11.209-2.055.627-2.834.417-.779.986-1.372 1.705-1.78.719-.41 1.531-.616 2.436-.616.898 0 1.707.206 2.426.617.723.407 1.293 1 1.711 1.78.42.778.631 1.723.631 2.833zm-2.183 0c0-.72-.107-1.327-.323-1.82-.212-.494-.512-.869-.9-1.124-.387-.255-.841-.383-1.362-.383-.52 0-.974.128-1.362.383-.388.255-.689.63-.905 1.124-.212.493-.318 1.1-.318 1.82 0 .718.106 1.325.318 1.819.216.493.517.868.905 1.123s.842.383 1.362.383c.521 0 .975-.127 1.362-.383.388-.255.688-.63.9-1.123.216-.494.323-1.1.323-1.82zm3.366 7.546v-4.171h.691c.235-.17.451-.408.646-.716.196-.312.363-.74.502-1.288.139-.55.239-1.27.299-2.157l.288-4.306h6.736v8.467h1.114v4.161h-2.068V99h-6.14v2.456h-2.068zm3.177-4.171h3.917v-6.692h-2.729l-.159 2.53c-.043.673-.115 1.27-.214 1.79a9.02 9.02 0 0 1-.353 1.368c-.136.387-.29.722-.462 1.004zM144.25 99V88.818h2.152v4.201h4.371v-4.2h2.147V99h-2.147v-4.206h-4.371V99h-2.152zm12.002-6.418h2.426c.809 0 1.505.13 2.088.392.587.259 1.039.625 1.357 1.1.319.473.476 1.032.473 1.675.003.64-.154 1.204-.473 1.695-.318.487-.77.868-1.357 1.143-.583.275-1.279.413-2.088.413h-3.803V88.818h2.148v8.452h1.655c.388 0 .714-.07.98-.209.265-.142.465-.33.601-.562.139-.235.207-.492.204-.77a1.313 1.313 0 0 0-.457-1.025c-.305-.281-.748-.422-1.328-.422h-2.426v-1.7zm9.322-3.764V99h-2.148V88.818h2.148zM167.485 99V88.818h6.861v1.775h-4.708v2.426h4.355v1.775h-4.355v2.431h4.728V99h-6.881zM42.869 109.383H40.69a2.13 2.13 0 0 0-.244-.751 1.913 1.913 0 0 0-.472-.567 2.096 2.096 0 0 0-.666-.358 2.572 2.572 0 0 0-.81-.124c-.527 0-.986.131-1.378.393-.39.258-.694.636-.91 1.133-.215.494-.322 1.094-.322 1.8 0 .726.107 1.336.323 1.83.218.493.523.866.914 1.118a2.45 2.45 0 0 0 1.358.378c.288 0 .555-.038.8-.114.249-.076.47-.188.661-.333.193-.15.352-.33.478-.542a2.12 2.12 0 0 0 .268-.726l2.178.01a4.055 4.055 0 0 1-1.322 2.51 4.223 4.223 0 0 1-1.343.806c-.517.195-1.102.293-1.755.293-.908 0-1.72-.205-2.436-.616-.713-.411-1.276-1.006-1.69-1.785-.412-.779-.617-1.722-.617-2.829 0-1.11.209-2.055.626-2.834.418-.779.985-1.372 1.7-1.78.717-.411 1.522-.616 2.417-.616.59 0 1.137.083 1.64.249.508.165.957.407 1.348.725.39.315.71.701.954 1.159.249.457.408.981.478 1.571zm10.339-3.565V116H51.08v-8.432h-4.116V116h-2.128v-10.182h8.372zm11.546 5.091c0 1.11-.21 2.055-.632 2.834-.417.779-.987 1.374-1.71 1.785-.719.407-1.528.611-2.426.611-.905 0-1.717-.205-2.436-.616-.72-.411-1.288-1.006-1.705-1.785-.418-.779-.627-1.722-.627-2.829 0-1.11.21-2.055.627-2.834.417-.779.986-1.372 1.705-1.78.72-.411 1.531-.616 2.436-.616.898 0 1.707.205 2.426.616.723.408 1.293 1.001 1.71 1.78.421.779.632 1.724.632 2.834zm-2.183 0c0-.719-.107-1.326-.323-1.82-.212-.493-.512-.868-.9-1.123-.387-.255-.841-.383-1.362-.383-.52 0-.974.128-1.362.383-.388.255-.69.63-.905 1.123-.212.494-.318 1.101-.318 1.82 0 .719.106 1.326.318 1.82.215.494.517.868.905 1.123s.842.383 1.362.383c.52 0 .975-.128 1.362-.383.388-.255.688-.629.9-1.123.216-.494.323-1.101.323-1.82zM66.49 116v-10.182h4.017c.772 0 1.43.148 1.973.443.544.291.958.697 1.243 1.218.289.517.433 1.113.433 1.789 0 .677-.146 1.273-.438 1.79-.291.517-.714.92-1.267 1.208-.55.289-1.217.433-2 .433h-2.56v-1.725h2.213c.414 0 .756-.072 1.024-.214.272-.146.474-.346.607-.602a1.88 1.88 0 0 0 .203-.89 1.83 1.83 0 0 0-.203-.884 1.357 1.357 0 0 0-.607-.592c-.272-.143-.616-.214-1.034-.214H68.64V116h-2.153zm8.816-8.407v-1.775h8.362v1.775H80.55V116h-2.128v-8.407h-3.117zm9.88-1.775h2.147v6.404h.085l4.4-6.404H93.7V116h-2.153v-6.408h-.074L87.049 116h-1.864v-10.182zM95.619 116v-10.182h4.077c.749 0 1.374.111 1.874.333.501.222.877.531 1.129.925.252.391.378.842.378 1.352 0 .398-.08.748-.239 1.049a2.055 2.055 0 0 1-.656.736c-.275.189-.59.323-.945.403v.099a2.327 2.327 0 0 1 1.919 1.178c.213.362.319.793.319 1.293 0 .54-.135 1.023-.403 1.447-.265.421-.658.754-1.178.999-.521.245-1.162.368-1.924.368h-4.35zm2.153-1.76h1.755c.6 0 1.038-.114 1.313-.343.275-.232.412-.54.412-.925 0-.281-.068-.53-.204-.745a1.377 1.377 0 0 0-.581-.508 2.003 2.003 0 0 0-.89-.183h-1.805v2.704zm0-4.161h1.596c.295 0 .557-.052.786-.154.232-.106.414-.255.546-.448.136-.192.204-.422.204-.691a1.12 1.12 0 0 0-.392-.89c-.259-.225-.627-.338-1.104-.338h-1.636v2.521zm7.243 5.921v-10.182h2.153v4.201h4.37v-4.201h2.148V116h-2.148v-4.206h-4.37V116h-2.153zm12.003-6.418h2.426c.808 0 1.504.131 2.088.392.586.259 1.039.625 1.357 1.099.318.474.476 1.033.472 1.676.004.639-.154 1.204-.472 1.695-.318.487-.771.868-1.357 1.143-.584.275-1.28.413-2.088.413h-3.804v-10.182h2.148v8.452h1.656c.387 0 .714-.07.979-.209.265-.142.466-.33.602-.562.139-.235.207-.492.203-.77a1.308 1.308 0 0 0-.457-1.024c-.305-.282-.747-.423-1.327-.423h-2.426v-1.7zm9.321-3.764V116h-2.147v-10.182h2.147zM128.25 116v-10.182h6.861v1.775h-4.708v2.426h4.355v1.775h-4.355v2.431h4.728V116h-6.881zm12.093-10.182h2.148v6.404h.084l4.4-6.404h1.884V116h-2.152v-6.408h-.075L142.207 116h-1.864v-10.182zm17.191 0v1.775h-4.603V116h-2.153v-10.182h6.756zM159.053 116v-10.182h4.017c.772 0 1.43.148 1.973.443.544.291.958.697 1.243 1.218.289.517.433 1.113.433 1.789 0 .677-.146 1.273-.438 1.79-.291.517-.714.92-1.267 1.208-.551.289-1.217.433-1.999.433h-2.56v-1.725h2.212c.414 0 .756-.072 1.024-.214.272-.146.474-.346.607-.602a1.88 1.88 0 0 0 .203-.89c0-.338-.067-.633-.203-.884a1.359 1.359 0 0 0-.607-.592c-.272-.143-.616-.214-1.034-.214h-1.452V116h-2.152zm10.621-6.418h2.426c.809 0 1.505.131 2.088.392.587.259 1.039.625 1.357 1.099.319.474.476 1.033.473 1.676.003.639-.154 1.204-.473 1.695-.318.487-.77.868-1.357 1.143-.583.275-1.279.413-2.088.413h-3.803v-10.182h2.148v8.452h1.655c.388 0 .714-.07.98-.209.265-.142.465-.33.601-.562.139-.235.207-.492.204-.77a1.311 1.311 0 0 0-.457-1.024c-.305-.282-.748-.423-1.328-.423h-2.426v-1.7zm9.322-3.764V116h-2.148v-10.182h2.148zm4.739 12.638v-4.171h.691a2.54 2.54 0 0 0 .647-.716c.195-.312.362-.741.502-1.288.139-.55.238-1.269.298-2.157l.288-4.306h6.737v8.467h1.113v4.161h-2.068V116h-6.14v2.456h-2.068zm3.177-4.171h3.918v-6.692h-2.73l-.159 2.531a14.458 14.458 0 0 1-.214 1.789 8.872 8.872 0 0 1-.353 1.368c-.135.387-.29.722-.462 1.004zM195.46 116v-10.182h6.861v1.775h-4.708v2.426h4.355v1.775h-4.355v2.431h4.728V116h-6.881zm8.325-8.407v-1.775h8.362v1.775h-3.117V116h-2.128v-8.407h-3.117zm9.879-1.775h2.148v6.404h.084l4.4-6.404h1.884V116h-2.152v-6.408h-.075L215.528 116h-1.864v-10.182zM35.64 133h-2.307l3.515-10.182h2.774L43.132 133h-2.307l-2.55-7.855h-.08L35.64 133zm-.144-4.002h5.449v1.68h-5.45v-1.68zm12.705 4.141c-.742 0-1.403-.127-1.983-.383-.577-.258-1.033-.613-1.367-1.064a2.672 2.672 0 0 1-.512-1.571h2.167c.013.249.095.468.244.657a1.5 1.5 0 0 0 .606.432c.252.103.535.154.85.154.328 0 .618-.058.87-.174a1.42 1.42 0 0 0 .592-.482c.143-.205.214-.442.214-.711a1.19 1.19 0 0 0-.229-.721 1.46 1.46 0 0 0-.646-.497 2.52 2.52 0 0 0-.994-.179h-.95v-1.581h.95c.324 0 .611-.056.86-.169.252-.113.447-.268.586-.467.14-.202.21-.438.21-.706a1.22 1.22 0 0 0-.185-.671 1.217 1.217 0 0 0-.507-.458 1.653 1.653 0 0 0-.756-.164c-.291 0-.558.053-.8.159a1.405 1.405 0 0 0-.582.443 1.162 1.162 0 0 0-.233.676h-2.064a2.65 2.65 0 0 1 .502-1.551 3.256 3.256 0 0 1 1.313-1.049c.553-.255 1.178-.383 1.874-.383.703 0 1.318.128 1.845.383.527.255.936.6 1.228 1.034.295.431.44.915.437 1.452.004.57-.174 1.045-.532 1.426-.354.382-.817.624-1.387.726v.08c.75.096 1.32.356 1.71.78.395.421.59.948.587 1.581a2.486 2.486 0 0 1-.502 1.547c-.335.45-.797.805-1.387 1.063-.59.259-1.266.388-2.029.388zm5.665-10.321h2.148v6.404h.084l4.4-6.404h1.885V133H60.23v-6.408h-.075L55.73 133h-1.864v-10.182zm10.435 0h2.148v6.404h.084l4.4-6.404h1.884V133h-2.152v-6.408h-.075L66.165 133h-1.864v-10.182zm11.633 10.311a1.16 1.16 0 0 1-.845-.348 1.16 1.16 0 0 1-.348-.845c0-.325.116-.603.348-.835a1.16 1.16 0 0 1 .845-.348c.318 0 .597.116.835.348.239.232.358.51.358.835 0 .219-.056.419-.169.602a1.28 1.28 0 0 1-.432.432 1.14 1.14 0 0 1-.592.159zm15.823-1.849-.125 4.126h-2.048V133h-.716v-1.72h2.889zm-9.81 1.72v-10.182h2.069v8.452h4.236v-8.452h2.093V133h-8.397zm11.256 0v-10.182h6.861v1.775h-4.708v2.426h4.355v1.775h-4.355v2.431h4.728V133h-6.881zm8.712 0v-10.182h4.017c.772 0 1.43.148 1.974.443.543.291.958.697 1.243 1.218.288.517.432 1.113.432 1.789 0 .677-.146 1.273-.437 1.79-.292.517-.714.92-1.268 1.208-.55.289-1.216.433-1.999.433h-2.56v-1.725h2.212c.415 0 .756-.072 1.025-.214.271-.146.474-.346.606-.602.136-.258.204-.555.204-.89 0-.338-.068-.633-.204-.884a1.357 1.357 0 0 0-.606-.592c-.272-.143-.617-.214-1.034-.214h-1.452V133h-2.153zm9.205 0v-10.182h6.86v1.775h-4.708v2.426h4.355v1.775h-4.355v2.431H118V133h-6.88zm8.712-10.182h2.655l2.804 6.841h.119l2.804-6.841h2.655V133h-2.088v-6.627h-.085l-2.635 6.577h-1.422l-2.635-6.602h-.084V133h-2.088v-10.182zm22.307 5.091c0 1.11-.211 2.055-.631 2.834-.418.779-.988 1.374-1.711 1.785-.719.407-1.528.611-2.426.611-.905 0-1.717-.205-2.436-.616-.719-.411-1.288-1.006-1.705-1.785-.418-.779-.627-1.722-.627-2.829 0-1.11.209-2.055.627-2.834.417-.779.986-1.372 1.705-1.78.719-.411 1.531-.616 2.436-.616.898 0 1.707.205 2.426.616.723.408 1.293 1.001 1.711 1.78.42.779.631 1.724.631 2.834zm-2.183 0c0-.719-.107-1.326-.323-1.82-.212-.493-.512-.868-.9-1.123-.387-.255-.841-.383-1.362-.383-.52 0-.974.128-1.362.383-.388.255-.689.63-.905 1.123-.212.494-.318 1.101-.318 1.82 0 .719.106 1.326.318 1.82.216.494.517.868.905 1.123s.842.383 1.362.383c.521 0 .975-.128 1.362-.383.388-.255.688-.629.9-1.123.216-.494.323-1.101.323-1.82zm3.918 5.091v-10.182h2.152v4.201h4.37v-4.201h2.148V133h-2.148v-4.206h-4.37V133h-2.152zm10.585-10.182h2.148v6.404h.084l4.4-6.404h1.884V133h-2.153v-6.408h-.074L156.323 133h-1.864v-10.182zM172.709 133h-2.148v-8.422h-1.451c-.415 0-.759.061-1.034.184a1.279 1.279 0 0 0-.612.527c-.136.232-.204.517-.204.855 0 .335.068.615.204.84.136.226.34.395.612.507.271.113.613.17 1.024.17h2.336v1.73h-2.684c-.779 0-1.445-.13-1.999-.388-.553-.259-.976-.63-1.268-1.114-.291-.487-.437-1.069-.437-1.745 0-.673.142-1.258.427-1.755.289-.5.705-.886 1.248-1.158.547-.275 1.205-.413 1.974-.413h4.012V133zm-5.493-4.634h2.321L167.061 133h-2.376l2.531-4.634zM43.241 144.909c0 1.11-.21 2.055-.63 2.834-.418.779-.989 1.374-1.711 1.785-.72.407-1.528.611-2.426.611-.905 0-1.717-.205-2.436-.616-.72-.411-1.288-1.006-1.706-1.785-.417-.779-.626-1.722-.626-2.829 0-1.11.209-2.055.626-2.834.418-.779.986-1.372 1.706-1.78.719-.411 1.53-.616 2.436-.616.898 0 1.707.205 2.426.616.722.408 1.293 1.001 1.71 1.78.421.779.632 1.724.632 2.834zm-2.182 0c0-.719-.108-1.326-.323-1.82-.212-.493-.512-.868-.9-1.123s-.842-.383-1.362-.383c-.52 0-.975.128-1.362.383-.388.255-.69.63-.905 1.123-.212.494-.319 1.101-.319 1.82 0 .719.107 1.326.319 1.82.215.494.517.868.904 1.123.388.255.842.383 1.363.383.52 0 .974-.128 1.362-.383.388-.255.688-.629.9-1.123.215-.494.323-1.101.323-1.82zm3.065-3.316v-1.775h8.362v1.775h-3.117V150H47.24v-8.407h-3.117zM60.163 150l-3.272-4.34h-.735V150h-2.153v-10.182h2.153v4.067h.432l3.38-4.067h2.68l-3.972 4.723L62.832 150h-2.67zm3.892 0v-10.182h4.017c.772 0 1.43.148 1.974.443.543.291.958.697 1.243 1.218.288.517.432 1.113.432 1.789 0 .677-.146 1.273-.437 1.79a3.02 3.02 0 0 1-1.268 1.208c-.55.289-1.217.433-1.999.433h-2.56v-1.725h2.212c.415 0 .756-.072 1.024-.214.272-.146.474-.346.607-.602.136-.258.204-.555.204-.89a1.83 1.83 0 0 0-.204-.884 1.357 1.357 0 0 0-.607-.592c-.271-.143-.616-.214-1.034-.214h-1.451V150h-2.153zm10.621-6.418h2.426c.81 0 1.505.131 2.088.392.587.259 1.04.625 1.358 1.099.318.474.475 1.033.472 1.676.003.639-.154 1.204-.472 1.695-.318.487-.77.868-1.358 1.143-.583.275-1.279.413-2.088.413H73.3v-10.182h2.148v8.452h1.655c.388 0 .715-.07.98-.209.265-.142.466-.33.601-.562.14-.235.208-.492.204-.77a1.31 1.31 0 0 0-.457-1.024c-.305-.282-.748-.423-1.328-.423h-2.426v-1.7zm9.322-3.764V150H81.85v-10.182h2.148zm1.523 1.775v-1.775h8.363v1.775h-3.118V150H88.64v-8.407h-3.12zm9.88-1.775h2.148v6.404h.084l4.4-6.404h1.884V150h-2.153v-6.408h-.074L97.265 150h-1.864v-10.182zM113.65 150h-2.148v-8.422h-1.451c-.415 0-.759.061-1.035.184a1.28 1.28 0 0 0-.611.527c-.136.232-.204.517-.204.855 0 .335.068.615.204.84.136.226.34.395.611.507.272.113.614.17 1.025.17h2.336v1.73h-2.684c-.779 0-1.445-.13-1.999-.388-.553-.259-.976-.63-1.268-1.114-.291-.487-.437-1.069-.437-1.745 0-.673.142-1.258.427-1.755.289-.5.705-.886 1.248-1.158.547-.275 1.205-.413 1.974-.413h4.012V150zm-5.494-4.634h2.322L108.003 150h-2.376l2.53-4.634zM312.794 86v-2.66l6.213-5.752a23.27 23.27 0 0 0 1.33-1.38c.363-.41.639-.81.826-1.202.188-.398.282-.827.282-1.287 0-.512-.117-.952-.35-1.321a2.296 2.296 0 0 0-.954-.861 2.994 2.994 0 0 0-1.372-.307c-.535 0-1 .108-1.398.324a2.232 2.232 0 0 0-.921.929c-.216.403-.323.883-.323 1.44h-3.503c0-1.142.258-2.133.775-2.974.517-.841 1.242-1.492 2.174-1.952.931-.46 2.005-.69 3.221-.69 1.25 0 2.338.221 3.264.665.932.437 1.657 1.045 2.174 1.824.517.778.775 1.67.775 2.676 0 .659-.13 1.31-.392 1.951-.256.642-.713 1.355-1.372 2.14-.659.778-1.588 1.713-2.787 2.803l-2.548 2.498v.119h7.329V86h-12.443zm22.201.383c-1.466-.005-2.727-.366-3.784-1.082-1.051-.716-1.861-1.753-2.429-3.11-.562-1.359-.841-2.992-.835-4.901 0-1.904.281-3.526.844-4.867.568-1.34 1.377-2.36 2.429-3.06 1.056-.704 2.315-1.056 3.775-1.056s2.716.352 3.767 1.057c1.057.704 1.869 1.727 2.438 3.068.568 1.335.849 2.954.843 4.858 0 1.914-.284 3.55-.852 4.909-.562 1.358-1.369 2.395-2.42 3.11-1.051.717-2.31 1.075-3.776 1.075zm0-3.06c1 0 1.798-.502 2.395-1.508.597-1.005.892-2.514.886-4.525 0-1.324-.136-2.426-.409-3.307-.267-.88-.647-1.543-1.142-1.986a2.489 2.489 0 0 0-1.73-.665c-.994 0-1.79.498-2.386 1.492-.597.994-.898 2.483-.904 4.466 0 1.34.134 2.46.401 3.358.273.892.656 1.562 1.15 2.011a2.523 2.523 0 0 0 1.739.665zm-39.434 23.683v2.855h-6.836v-2.855h6.836zm-5.642-5.097V115h-3.469v-13.091h3.469zm7.917 0V115h-3.443v-13.091h3.443zm8.972 13.347c-1.324 0-2.469-.282-3.435-.844a5.77 5.77 0 0 1-2.224-2.369c-.523-1.017-.784-2.196-.784-3.537 0-1.353.261-2.534.784-3.546a5.698 5.698 0 0 1 2.224-2.369c.966-.568 2.111-.852 3.435-.852 1.324 0 2.466.284 3.426.852a5.687 5.687 0 0 1 2.233 2.369c.523 1.012.784 2.193.784 3.546 0 1.341-.261 2.52-.784 3.537a5.759 5.759 0 0 1-2.233 2.369c-.96.562-2.102.844-3.426.844zm.017-2.813c.602 0 1.105-.17 1.508-.511.404-.347.708-.818.912-1.415.21-.597.316-1.276.316-2.037 0-.761-.106-1.44-.316-2.037-.204-.596-.508-1.068-.912-1.415-.403-.346-.906-.519-1.508-.519-.608 0-1.12.173-1.534.519-.409.347-.719.819-.929 1.415-.205.597-.307 1.276-.307 2.037 0 .761.102 1.44.307 2.037.21.597.52 1.068.929 1.415.414.341.926.511 1.534.511zM323.522 115v-10.244h-2.454c-.665 0-1.171.153-1.517.46-.347.307-.518.67-.512 1.091-.006.426.159.787.494 1.082.341.29.841.435 1.5.435h3.699v2.454h-3.699c-1.119 0-2.088-.17-2.906-.511-.818-.341-1.449-.815-1.892-1.423-.443-.614-.662-1.327-.656-2.139-.006-.853.213-1.6.656-2.242.443-.648 1.077-1.151 1.901-1.508.829-.364 1.807-.546 2.932-.546h5.838V115h-3.384zm-8.318 0 3.639-6.818h3.469L318.681 115h-3.477zm25.646-17.898 1.108 2.37a3.711 3.711 0 0 1-1.227.681c-.449.142-.986.236-1.611.282-.619.045-1.375.076-2.267.093-1.011.012-1.835.174-2.472.486-.636.313-1.119.804-1.448 1.475-.33.664-.546 1.534-.648 2.608h.128c.392-.802.943-1.421 1.653-1.858.716-.438 1.6-.657 2.651-.657 1.113 0 2.088.245 2.923.733.841.489 1.494 1.191 1.96 2.105.466.915.699 2.012.699 3.29 0 1.33-.261 2.486-.784 3.469a5.538 5.538 0 0 1-2.207 2.276c-.955.534-2.091.801-3.41.801-1.323 0-2.465-.279-3.426-.836-.954-.556-1.693-1.377-2.216-2.463-.517-1.085-.775-2.42-.775-4.005v-1.074c0-3.154.614-5.492 1.841-7.014 1.227-1.523 3.031-2.296 5.412-2.319a62.097 62.097 0 0 1 1.755-.008c.523.006.981-.02 1.373-.077.397-.057.727-.176.988-.358zm-4.934 15.341c.556 0 1.034-.145 1.431-.434.404-.29.713-.705.929-1.245.222-.54.333-1.184.333-1.934 0-.745-.111-1.375-.333-1.892-.216-.523-.525-.921-.929-1.194-.403-.272-.886-.409-1.449-.409-.42 0-.798.077-1.133.23a2.333 2.333 0 0 0-.861.682 3.255 3.255 0 0 0-.545 1.1 5.336 5.336 0 0 0-.188 1.483c0 1.119.242 2.002.725 2.65.488.642 1.162.963 2.02.963zM281.546 214v-2.659l6.213-5.753c.529-.511.972-.972 1.33-1.381.364-.409.639-.809.827-1.201.187-.398.281-.827.281-1.287 0-.512-.117-.952-.35-1.321a2.29 2.29 0 0 0-.954-.861 2.985 2.985 0 0 0-1.372-.307c-.534 0-1 .108-1.398.324a2.227 2.227 0 0 0-.92.929c-.216.403-.324.883-.324 1.44h-3.503c0-1.142.258-2.133.775-2.974.517-.841 1.242-1.492 2.174-1.952.932-.46 2.005-.69 3.221-.69 1.25 0 2.338.221 3.265.665.931.437 1.656 1.045 2.173 1.823.517.779.775 1.671.775 2.677a5.12 5.12 0 0 1-.392 1.951c-.255.642-.713 1.355-1.372 2.139-.659.779-1.588 1.714-2.787 2.804l-2.548 2.498v.119h7.33V214h-12.444zm22.201.384c-1.466-.006-2.727-.367-3.784-1.083-1.051-.716-1.861-1.753-2.429-3.111-.562-1.358-.841-2.991-.835-4.9 0-1.904.281-3.526.844-4.867.568-1.341 1.378-2.361 2.429-3.059 1.057-.705 2.315-1.057 3.775-1.057s2.716.352 3.767 1.057c1.057.704 1.87 1.727 2.438 3.068.568 1.335.849 2.954.844 4.858 0 1.915-.285 3.551-.853 4.909-.562 1.358-1.369 2.395-2.42 3.111-1.051.716-2.31 1.074-3.776 1.074zm0-3.06c1 0 1.799-.503 2.395-1.509.597-1.005.892-2.514.887-4.525 0-1.324-.137-2.426-.41-3.307-.267-.881-.647-1.543-1.142-1.986a2.49 2.49 0 0 0-1.73-.665c-.994 0-1.79.498-2.386 1.492-.597.994-.898 2.483-.904 4.466 0 1.341.134 2.46.401 3.358.273.892.656 1.562 1.151 2.011a2.52 2.52 0 0 0 1.738.665zm9.92 2.676v-2.659l6.213-5.753c.528-.511.972-.972 1.33-1.381.363-.409.639-.809.826-1.201.188-.398.282-.827.282-1.287 0-.512-.117-.952-.35-1.321a2.297 2.297 0 0 0-.954-.861 2.99 2.99 0 0 0-1.373-.307c-.534 0-1 .108-1.397.324a2.235 2.235 0 0 0-.921.929c-.216.403-.324.883-.324 1.44h-3.502c0-1.142.258-2.133.775-2.974.517-.841 1.242-1.492 2.173-1.952.932-.46 2.006-.69 3.222-.69 1.25 0 2.338.221 3.264.665.932.437 1.656 1.045 2.173 1.823.518.779.776 1.671.776 2.677a5.14 5.14 0 0 1-.392 1.951c-.256.642-.713 1.355-1.372 2.139-.659.779-1.588 1.714-2.787 2.804l-2.548 2.498v.119h7.329V214h-12.443zm14.718-3.068v-2.906l7.287-11.481h2.506v4.023h-1.483l-4.594 7.27v.136h10.355v2.958h-14.071zm8.378 3.068v-3.955l.068-1.286v-12.214h3.46V214h-3.528zM40.58 188h-1.057a2.194 2.194 0 0 0-.89-1.381 2.399 2.399 0 0 0-.73-.358 2.929 2.929 0 0 0-.835-.119c-.528 0-1.007.134-1.436.401-.426.267-.765.66-1.018 1.18-.25.52-.375 1.158-.375 1.913 0 .756.125 1.394.375 1.914.253.52.592.913 1.018 1.18.43.267.908.401 1.436.401.29 0 .568-.04.835-.12.267-.079.51-.197.73-.353a2.246 2.246 0 0 0 .89-1.385h1.056a3.509 3.509 0 0 1-.434 1.197 3.274 3.274 0 0 1-1.837 1.458c-.386.127-.8.191-1.24.191-.744 0-1.406-.181-1.986-.545-.58-.364-1.035-.881-1.367-1.551-.333-.671-.5-1.466-.5-2.387 0-.92.167-1.716.5-2.386.332-.67.788-1.188 1.367-1.551.58-.364 1.242-.546 1.986-.546.44 0 .854.064 1.24.192.39.128.74.316 1.053.563a3.2 3.2 0 0 1 .784.895c.21.349.355.748.434 1.197zm1.316.392v-.937h5.318v.937h-2.148V194h-1.005v-5.608h-2.165zm8.491 5.761c-.414 0-.79-.078-1.129-.234a1.94 1.94 0 0 1-.805-.686c-.2-.301-.299-.665-.299-1.091 0-.375.074-.679.222-.912.148-.236.345-.42.592-.554a3.12 3.12 0 0 1 .818-.298c.302-.068.604-.122.908-.162.398-.051.72-.09.967-.115.25-.029.432-.075.546-.141.117-.065.175-.179.175-.341v-.034c0-.42-.115-.747-.346-.98-.227-.233-.572-.349-1.035-.349-.48 0-.856.105-1.13.315-.272.21-.464.435-.575.673l-.954-.341c.17-.397.398-.707.682-.929.287-.224.6-.38.937-.468a3.89 3.89 0 0 1 1.006-.137 4 4 0 0 1 .724.077c.276.048.541.149.797.303.259.153.473.385.644.694.17.31.255.725.255 1.245V194h-1.005v-.886h-.051a1.773 1.773 0 0 1-.341.456 1.97 1.97 0 0 1-.635.413c-.264.114-.587.17-.968.17zm.154-.903c.398 0 .733-.078 1.006-.234a1.602 1.602 0 0 0 .835-1.385v-.921c-.043.051-.137.098-.282.141a4.63 4.63 0 0 1-.494.106 20.937 20.937 0 0 1-.963.128 3.89 3.89 0 0 0-.733.166 1.262 1.262 0 0 0-.545.337c-.137.148-.205.349-.205.605 0 .35.13.614.388.793.261.176.592.264.993.264zm4.103 2.625v-2.813h.546c.133-.139.248-.289.345-.451.096-.162.18-.354.251-.575.074-.225.136-.498.188-.819.05-.324.096-.714.136-1.172l.222-2.59h4.159v5.607h1.005v2.813h-1.005V194H55.65v1.875h-1.006zm1.688-2.813h3.153v-4.67h-2.216l-.17 1.653c-.071.685-.16 1.283-.265 1.794-.105.512-.272.92-.502 1.223zm7.625-.545 3.153-5.062h1.16V194h-1.006v-5.062L64.127 194h-1.176v-6.545h1.006v5.062zm8.934 1.619c-.591 0-1.11-.14-1.556-.422a2.861 2.861 0 0 1-1.04-1.18c-.247-.506-.37-1.097-.37-1.773 0-.681.123-1.277.37-1.785.25-.509.597-.904 1.04-1.185.446-.281.965-.422 1.556-.422.59 0 1.107.141 1.55.422a2.81 2.81 0 0 1 1.04 1.185c.25.508.375 1.104.375 1.785 0 .676-.125 1.267-.375 1.773a2.823 2.823 0 0 1-1.04 1.18c-.443.282-.96.422-1.55.422zm0-.903c.448 0 .818-.115 1.107-.345.29-.23.505-.533.644-.908.14-.375.209-.781.209-1.219 0-.437-.07-.845-.21-1.223a2.065 2.065 0 0 0-.643-.916c-.29-.233-.659-.349-1.108-.349-.448 0-.818.116-1.108.349-.29.233-.504.539-.643.916-.14.378-.209.786-.209 1.223 0 .438.07.844.21 1.219.138.375.353.678.642.908.29.23.66.345 1.109.345zm9.001-2.966v.938H78.28v-.938h3.613zm-3.375-2.812V194h-1.005v-6.545h1.005zm4.142 0V194h-1.005v-6.545h1.005zm7.94 5.607h-.886l-1.721-2.556v-.086h.971l1.637 2.642zm0-5.232-1.636 2.642h-.971v-.086l1.721-2.556h.887zm2.182 5.232h-.886l-1.722-2.556v-.086h.972l1.636 2.642zm0-5.232-1.636 2.642h-.972v-.086l1.722-2.556h.886zm.98-1.62v-.937h6.546v.937h-2.745V194h-1.057v-7.79h-2.744zm8.058 10.245c-.17 0-.322-.015-.456-.043a1.19 1.19 0 0 1-.277-.077l.256-.886c.244.062.46.085.647.068a.778.778 0 0 0 .499-.251c.148-.148.283-.388.405-.721l.187-.511-2.42-6.579h1.091l1.807 5.215h.068l1.807-5.215h1.091l-2.779 7.5c-.125.338-.28.617-.464.839-.185.224-.4.391-.644.499a1.98 1.98 0 0 1-.818.162zm7.158-3.938 3.153-5.062h1.159V194h-1.006v-5.062L109.147 194h-1.176v-6.545h1.006v5.062zm2.488-7.244h.938c0 .46-.159.836-.478 1.129-.318.293-.75.439-1.295.439-.537 0-.964-.146-1.283-.439-.315-.293-.473-.669-.473-1.129h.938c0 .221.061.416.183.584.125.167.337.251.635.251s.511-.084.639-.251a.923.923 0 0 0 .196-.584zm7.366 7.363 2.284-5.181h.954L119.24 194h-.818l-2.779-6.545h.938l2.25 5.181zm-2.574-5.181V194h-1.006v-6.545h1.006zm5.147 6.545v-6.545h1.006V194h-1.006zm4.893.153c-.415 0-.791-.078-1.129-.234a1.933 1.933 0 0 1-.805-.686c-.199-.301-.299-.665-.299-1.091 0-.375.074-.679.222-.912.148-.236.345-.42.592-.554a3.12 3.12 0 0 1 .818-.298 10.1 10.1 0 0 1 .908-.162c.398-.051.72-.09.967-.115.25-.029.432-.075.546-.141.116-.065.175-.179.175-.341v-.034c0-.42-.116-.747-.346-.98-.227-.233-.572-.349-1.035-.349-.48 0-.857.105-1.129.315-.273.21-.465.435-.576.673l-.954-.341c.17-.397.397-.707.682-.929.287-.224.599-.38.937-.468a3.89 3.89 0 0 1 1.006-.137 4 4 0 0 1 .724.077c.276.048.541.149.797.303.259.153.473.385.644.694.17.31.255.725.255 1.245V194h-1.005v-.886h-.052a1.748 1.748 0 0 1-.341.456c-.159.162-.37.299-.634.413-.265.114-.587.17-.968.17zm.154-.903c.397 0 .733-.078 1.005-.234a1.597 1.597 0 0 0 .836-1.385v-.921c-.043.051-.137.098-.282.141a4.65 4.65 0 0 1-.494.106 21.302 21.302 0 0 1-.963.128c-.261.034-.506.09-.733.166a1.27 1.27 0 0 0-.546.337c-.136.148-.204.349-.204.605 0 .35.129.614.388.793.261.176.592.264.993.264zm6.728.903c-.415 0-.791-.078-1.129-.234a1.942 1.942 0 0 1-.806-.686c-.199-.301-.298-.665-.298-1.091 0-.375.074-.679.222-.912.147-.236.345-.42.592-.554a3.12 3.12 0 0 1 .818-.298 10.1 10.1 0 0 1 .908-.162c.397-.051.72-.09.967-.115.25-.029.432-.075.546-.141.116-.065.174-.179.174-.341v-.034c0-.42-.115-.747-.345-.98-.227-.233-.572-.349-1.035-.349-.481 0-.857.105-1.13.315-.272.21-.464.435-.575.673l-.955-.341c.171-.397.398-.707.682-.929.287-.224.6-.38.938-.468a3.888 3.888 0 0 1 1.005-.137c.211 0 .452.026.725.077.275.048.541.149.797.303.258.153.473.385.643.694.171.31.256.725.256 1.245V194h-1.006v-.886h-.051a1.77 1.77 0 0 1-.341.456 1.973 1.973 0 0 1-.635.413c-.264.114-.586.17-.967.17zm.153-.903c.398 0 .733-.078 1.006-.234a1.597 1.597 0 0 0 .835-1.385v-.921c-.042.051-.136.098-.281.141a4.65 4.65 0 0 1-.494.106 20.745 20.745 0 0 1-.963.128c-.262.034-.506.09-.733.166a1.259 1.259 0 0 0-.546.337c-.136.148-.204.349-.204.605 0 .35.129.614.387.793.262.176.593.264.993.264zm4.104 2.625v-2.813h.545c.134-.139.249-.289.345-.451.097-.162.181-.354.252-.575.074-.225.136-.498.187-.819.051-.324.097-.714.137-1.172l.221-2.59h4.159v5.607h1.006v2.813h-1.006V194h-4.841v1.875h-1.005zm1.687-2.813h3.154v-4.67h-2.216l-.171 1.653a18.509 18.509 0 0 1-.264 1.794c-.105.512-.273.92-.503 1.223zm8.546 1.091c-.415 0-.791-.078-1.129-.234a1.942 1.942 0 0 1-.806-.686c-.199-.301-.298-.665-.298-1.091 0-.375.074-.679.222-.912.147-.236.345-.42.592-.554a3.12 3.12 0 0 1 .818-.298 10.1 10.1 0 0 1 .908-.162c.397-.051.72-.09.967-.115.25-.029.432-.075.546-.141.116-.065.174-.179.174-.341v-.034c0-.42-.115-.747-.345-.98-.227-.233-.572-.349-1.035-.349-.481 0-.857.105-1.13.315-.272.21-.464.435-.575.673l-.955-.341c.171-.397.398-.707.682-.929.287-.224.6-.38.938-.468a3.888 3.888 0 0 1 1.005-.137c.211 0 .452.026.725.077.275.048.541.149.797.303.258.153.473.385.643.694.171.31.256.725.256 1.245V194h-1.006v-.886h-.051a1.77 1.77 0 0 1-.341.456 1.973 1.973 0 0 1-.635.413c-.264.114-.586.17-.967.17zm.153-.903c.398 0 .733-.078 1.006-.234a1.597 1.597 0 0 0 .835-1.385v-.921c-.042.051-.136.098-.281.141a4.65 4.65 0 0 1-.494.106 20.745 20.745 0 0 1-.963.128c-.262.034-.506.09-.733.166a1.259 1.259 0 0 0-.546.337c-.136.148-.204.349-.204.605 0 .35.129.614.387.793.262.176.593.264.993.264zm9.303-.733 3.154-5.062h1.159V194h-1.006v-5.062L157.296 194h-1.176v-6.545h1.005v5.062zm9.854.119 2.284-5.181h.955l-2.83 6.545h-.818l-2.778-6.545h.937l2.25 5.181zm-2.574-5.181V194H163.4v-6.545h1.005zm5.148 6.545v-6.545h1.006V194h-1.006zm3.7.068a.738.738 0 0 1-.542-.226.739.739 0 0 1-.225-.541c0-.21.075-.39.225-.541a.738.738 0 0 1 .542-.226c.21 0 .39.075.541.226.15.151.226.331.226.541a.793.793 0 0 1-.384.665.73.73 0 0 1-.383.102zm6.323-.068v-8.727h1.057v3.886h4.653v-3.886h1.057V194h-1.057v-3.903h-4.653V194h-1.057zm9.599.068a.736.736 0 0 1-.541-.226.736.736 0 0 1-.226-.541c0-.21.075-.39.226-.541a.736.736 0 0 1 .541-.226c.21 0 .391.075.541.226a.737.737 0 0 1 .226.541.726.726 0 0 1-.106.384.81.81 0 0 1-.277.281.735.735 0 0 1-.384.102zm2.828-.068v-8.727h1.057v3.886h4.653v-3.886h1.057V194h-1.057v-3.903h-4.653V194h-1.057zm9.6.068a.738.738 0 0 1-.542-.226.739.739 0 0 1-.225-.541c0-.21.075-.39.225-.541a.738.738 0 0 1 .542-.226c.21 0 .39.075.541.226.15.151.226.331.226.541a.793.793 0 0 1-.384.665.73.73 0 0 1-.383.102zM33.079 202.21v-.937h6.546v.937h-2.744V210h-1.057v-7.79H33.08zm9.196 7.943c-.415 0-.791-.078-1.13-.234a1.94 1.94 0 0 1-.805-.686c-.198-.301-.298-.665-.298-1.091 0-.375.074-.679.222-.912.147-.236.345-.42.592-.554a3.12 3.12 0 0 1 .818-.298 10.1 10.1 0 0 1 .908-.162c.398-.051.72-.09.967-.115.25-.029.432-.075.546-.141.116-.065.175-.179.175-.341v-.034c0-.42-.116-.747-.346-.98-.227-.233-.572-.349-1.035-.349-.48 0-.857.105-1.13.315-.272.21-.464.435-.575.673l-.954-.341c.17-.397.398-.707.681-.929.288-.224.6-.38.938-.468a3.89 3.89 0 0 1 1.006-.137 4 4 0 0 1 .724.077c.276.048.541.149.797.303.259.153.473.385.644.694.17.31.255.725.255 1.245V210H44.27v-.886h-.052a1.775 1.775 0 0 1-.34.456c-.16.162-.371.299-.636.413-.264.114-.586.17-.967.17zm.154-.903c.397 0 .732-.078 1.005-.234a1.602 1.602 0 0 0 .836-1.385v-.921c-.043.051-.137.098-.282.141a4.65 4.65 0 0 1-.494.106 20.937 20.937 0 0 1-.963.128 3.89 3.89 0 0 0-.733.166 1.261 1.261 0 0 0-.546.337c-.136.148-.204.349-.204.605 0 .35.13.614.388.793.261.176.592.264.993.264zm4.802 3.205v-9h.971v1.039h.12c.073-.113.176-.258.306-.434a1.81 1.81 0 0 1 .572-.478c.25-.142.588-.213 1.014-.213.55 0 1.037.138 1.457.414.42.275.749.666.985 1.172.235.505.353 1.102.353 1.789 0 .694-.118 1.294-.353 1.803-.236.506-.563.898-.98 1.176-.418.276-.9.413-1.445.413-.42 0-.757-.069-1.01-.208a1.873 1.873 0 0 1-.584-.482 6.326 6.326 0 0 1-.315-.452h-.086v3.461h-1.005zm.988-5.728c0 .495.073.931.218 1.309.145.375.356.669.635.882.278.21.619.315 1.022.315.42 0 .772-.111 1.053-.332.284-.225.497-.526.64-.904.144-.381.217-.804.217-1.27 0-.46-.072-.875-.214-1.244a1.924 1.924 0 0 0-.634-.882c-.282-.219-.636-.328-1.062-.328-.409 0-.752.103-1.03.311a1.86 1.86 0 0 0-.632.861c-.142.366-.213.794-.213 1.282zm9.103 3.409c-.613 0-1.142-.145-1.585-.434a2.832 2.832 0 0 1-1.023-1.198c-.238-.508-.358-1.089-.358-1.743 0-.664.123-1.251.367-1.76.247-.511.59-.91 1.031-1.197.443-.29.96-.435 1.551-.435.46 0 .875.086 1.245.256.369.17.672.409.907.716.236.307.382.665.44 1.074H58.89a1.557 1.557 0 0 0-.512-.793c-.261-.233-.613-.349-1.057-.349-.392 0-.735.102-1.03.307a1.995 1.995 0 0 0-.687.856c-.162.367-.243.797-.243 1.291 0 .506.08.946.239 1.321.162.375.389.666.682.874.295.207.642.311 1.04.311.26 0 .498-.045.711-.136a1.468 1.468 0 0 0 .857-1.006h1.005a2.332 2.332 0 0 1-.422 1.044 2.357 2.357 0 0 1-.882.733c-.363.179-.787.268-1.27.268zm4.164-.136v-6.545h1.006v2.846h.665l2.352-2.846h1.296l-2.643 3.153L66.84 210h-1.296l-2.148-2.761h-.903V210h-1.006zm8.955.136c-.59 0-1.11-.14-1.555-.422a2.861 2.861 0 0 1-1.04-1.18c-.247-.506-.37-1.097-.37-1.773 0-.681.123-1.277.37-1.785.25-.509.597-.904 1.04-1.185.446-.281.964-.422 1.555-.422s1.108.141 1.551.422c.446.281.793.676 1.04 1.185.25.508.375 1.104.375 1.785 0 .676-.125 1.267-.375 1.773a2.823 2.823 0 0 1-1.04 1.18c-.443.282-.96.422-1.55.422zm0-.903c.45 0 .818-.115 1.108-.345.29-.23.504-.533.644-.908a3.48 3.48 0 0 0 .209-1.219c0-.437-.07-.845-.21-1.223a2.065 2.065 0 0 0-.643-.916c-.29-.233-.659-.349-1.108-.349-.449 0-.818.116-1.108.349-.29.233-.504.539-.643.916-.14.378-.209.786-.209 1.223 0 .438.07.844.209 1.219.139.375.353.678.643.908.29.23.66.345 1.108.345zm8.661-5.778v.937h-3.034V210h-1.006v-6.545h4.04zm3.907 6.681c-.59 0-1.109-.14-1.555-.422a2.861 2.861 0 0 1-1.04-1.18c-.247-.506-.37-1.097-.37-1.773 0-.681.123-1.277.37-1.785.25-.509.597-.904 1.04-1.185.446-.281.965-.422 1.555-.422.591 0 1.108.141 1.552.422.445.281.792.676 1.04 1.185.25.508.374 1.104.374 1.785 0 .676-.125 1.267-.375 1.773a2.823 2.823 0 0 1-1.04 1.18c-.443.282-.96.422-1.55.422zm0-.903c.45 0 .819-.115 1.108-.345.29-.23.505-.533.644-.908s.209-.781.209-1.219c0-.437-.07-.845-.21-1.223a2.065 2.065 0 0 0-.643-.916c-.29-.233-.659-.349-1.108-.349-.448 0-.818.116-1.108.349-.29.233-.504.539-.643.916-.14.378-.209.786-.209 1.223 0 .438.07.844.209 1.219.14.375.354.678.643.908.29.23.66.345 1.108.345zm4.502-.171 1.636-2.642h.972v.086l-1.722 2.556h-.886zm0-5.232h.886l1.722 2.556v.086h-.972l-1.636-2.642zm2.182 5.232 1.636-2.642h.972v.086l-1.722 2.556h-.886zm0-5.232h.886l1.722 2.556v.086h-.972l-1.636-2.642z"/><path stroke="#F8F9FE" stroke-dasharray="6 6" stroke-linecap="round" stroke-width="2" d="M254 63v149"/><path fill="#F8F9FE" d="M254 53V40h16c0 13-16 13-16 13zm0 0V40h-16c0 13 16 13 16 13zm0 169v13h-16c0-13 16-13 16-13zm0 0v13h16c0-13-16-13-16-13z"/></g><path fill="#006FFD" d="M139.482 262.773v8.727h-1.569v-7.415h-3.818v7.415h-1.568v-8.727h6.955zm1.822 11.182v-9h1.517v1.082h.09a2.81 2.81 0 0 1 .337-.507c.144-.182.34-.337.588-.465.247-.13.562-.196.946-.196.505 0 .961.13 1.368.388.409.256.732.635.971 1.138.242.5.362 1.114.362 1.841 0 .719-.118 1.329-.353 1.832-.236.503-.557.887-.963 1.151a2.481 2.481 0 0 1-1.381.396c-.375 0-.686-.062-.933-.187a1.898 1.898 0 0 1-.597-.452 2.89 2.89 0 0 1-.345-.507h-.064v3.486h-1.543zm1.513-5.728c0 .424.06.794.179 1.112.122.319.297.567.524.746.23.176.509.264.835.264.341 0 .627-.09.857-.272.23-.185.403-.436.52-.755.119-.321.179-.686.179-1.095 0-.406-.058-.767-.175-1.082a1.626 1.626 0 0 0-.52-.742c-.23-.179-.517-.268-.861-.268-.329 0-.609.087-.839.26-.23.173-.405.416-.524.729a3.14 3.14 0 0 0-.175 1.103zm8.885 3.401c-.656 0-1.223-.137-1.7-.409a2.765 2.765 0 0 1-1.095-1.168c-.256-.506-.384-1.101-.384-1.785 0-.674.128-1.265.384-1.773a2.898 2.898 0 0 1 1.082-1.193c.463-.287 1.007-.431 1.632-.431.404 0 .784.066 1.142.196.361.128.679.327.955.597.278.27.497.614.656 1.031.159.415.239.909.239 1.483v.473h-5.365v-1.04h3.886a1.66 1.66 0 0 0-.192-.788 1.4 1.4 0 0 0-.524-.55 1.48 1.48 0 0 0-.776-.2c-.315 0-.592.077-.831.23a1.6 1.6 0 0 0-.558.597c-.13.244-.197.513-.2.805v.908c0 .38.07.707.209.98.139.27.334.477.584.622.25.142.542.213.877.213.225 0 .428-.031.61-.094.182-.065.339-.16.473-.285.133-.125.234-.28.302-.465l1.441.162a2.25 2.25 0 0 1-.52.997c-.253.282-.577.5-.972.657a3.73 3.73 0 0 1-1.355.23zm3.636 1.773v-3.171h.52c.139-.108.256-.254.349-.439.094-.187.171-.407.231-.66.062-.256.113-.542.153-.857.04-.318.075-.66.106-1.027l.188-2.292h4.73v5.275h1.014v3.171h-1.491V271.5h-4.283v1.901h-1.517zm2.105-3.171h2.698v-4.031h-1.918l-.102 1.048a17.295 17.295 0 0 1-.226 1.781c-.094.495-.244.895-.452 1.202zm7.676-5.275v1.269h-1.73v-1.269h1.73zm1.048 2.13h1.926c.836 0 1.482.203 1.939.61.461.406.691.939.691 1.598 0 .429-.104.809-.311 1.142a2.1 2.1 0 0 1-.895.784c-.392.187-.867.281-1.424.281h-2.974v-6.545h1.491v5.279h1.483c.336 0 .611-.085.827-.255a.829.829 0 0 0 .328-.665.874.874 0 0 0-.328-.695c-.216-.179-.491-.268-.827-.268h-1.926v-1.266zm9.745 4.415v-5.293h-1.398c-.355 0-.628.083-.818.248a.765.765 0 0 0-.281.613.755.755 0 0 0 .268.605c.182.159.442.239.78.239h1.935v1.125h-1.935c-.523 0-.974-.082-1.355-.247a1.982 1.982 0 0 1-.878-.699 1.84 1.84 0 0 1-.307-1.057c0-.42.104-.785.311-1.095.211-.313.509-.554.895-.725.389-.173.851-.259 1.385-.259h2.843v6.545h-1.445zm-4.227 0 1.828-3.358h1.521l-1.832 3.358h-1.517zm7.225 0v-6.545h2.748c.776 0 1.388.154 1.837.464.452.31.678.742.678 1.295 0 .367-.128.667-.384.9-.253.23-.598.385-1.035.464.343.029.644.115.903.26.261.145.466.335.614.571.147.236.221.507.221.814 0 .361-.095.675-.285.942-.188.264-.462.47-.823.618-.358.145-.792.217-1.304.217h-3.17zm1.444-1.214h1.726c.284 0 .507-.067.669-.201a.686.686 0 0 0 .243-.554c0-.27-.081-.481-.243-.635-.162-.156-.385-.234-.669-.234h-1.726v1.624zm0-2.621h1.334c.21 0 .391-.03.541-.09a.777.777 0 0 0 .346-.26.688.688 0 0 0 .119-.404.608.608 0 0 0-.277-.529c-.182-.128-.435-.192-.759-.192h-1.304v1.475zm6.898 1.747 2.621-4.457h1.585v6.545h-1.491v-4.462l-2.612 4.462h-1.59v-6.545h1.487v4.457zm5.058-3.192v-1.265h5.727v1.265h-2.118v5.28h-1.491v-5.28h-2.118zm7.999.865h1.931c.835 0 1.481.203 1.939.61.457.406.687.939.69 1.598a2.146 2.146 0 0 1-.315 1.142 2.1 2.1 0 0 1-.895.784c-.389.187-.862.281-1.419.281h-2.975v-6.545h1.487v5.279h1.488c.335 0 .61-.085.826-.255a.816.816 0 0 0 .324-.665.861.861 0 0 0-.324-.695c-.216-.179-.491-.268-.826-.268h-1.931v-1.266zm14.104-4.551.537.997c-.19.165-.403.284-.639.358a3.684 3.684 0 0 1-.831.145c-.315.02-.69.034-1.125.043-.489.011-.888.103-1.197.277-.31.173-.547.436-.712.788-.165.349-.273.795-.324 1.338h.073c.204-.4.491-.706.86-.916.37-.21.803-.315 1.3-.315.543 0 1.021.122 1.436.366.418.242.743.592.976 1.053.236.46.354 1.017.354 1.67 0 .673-.127 1.257-.38 1.751a2.7 2.7 0 0 1-1.078 1.138c-.463.267-1.012.401-1.649.401-.633 0-1.184-.138-1.653-.414-.466-.278-.827-.688-1.083-1.231-.252-.546-.379-1.217-.379-2.016v-.588c0-1.54.287-2.689.861-3.447.574-.759 1.425-1.145 2.552-1.159.336-.006.635-.007.9-.005.267.003.5-.009.699-.038.198-.028.366-.094.502-.196zm-2.39 7.858c.315 0 .588-.081.818-.243a1.55 1.55 0 0 0 .528-.699c.125-.301.188-.657.188-1.069 0-.407-.063-.752-.188-1.036a1.446 1.446 0 0 0-.532-.656 1.467 1.467 0 0 0-.823-.226 1.56 1.56 0 0 0-.643.128 1.29 1.29 0 0 0-.486.375 1.731 1.731 0 0 0-.307.601 3.037 3.037 0 0 0-.115.814c0 .616.139 1.106.418 1.47.278.361.659.541 1.142.541zm5.897-.98 2.621-4.457h1.585v6.545h-1.491v-4.462l-2.612 4.462h-1.59v-6.545h1.487v4.457zm5.339 2.088-.009-1.27h.226a.765.765 0 0 0 .431-.115.833.833 0 0 0 .289-.383c.077-.182.137-.427.179-.733.043-.307.073-.689.09-1.147l.115-2.897h4.773v6.545h-1.492v-5.28h-1.879l-.102 2.11a7.654 7.654 0 0 1-.184 1.419 2.993 2.993 0 0 1-.4.984 1.629 1.629 0 0 1-.644.579 2.069 2.069 0 0 1-.916.188h-.477zm10.545.128c-.657 0-1.223-.137-1.701-.409a2.777 2.777 0 0 1-1.095-1.168c-.256-.506-.383-1.101-.383-1.785 0-.674.127-1.265.383-1.773a2.9 2.9 0 0 1 1.083-1.193c.463-.287 1.007-.431 1.632-.431.403 0 .784.066 1.142.196.36.128.679.327.954.597.279.27.497.614.656 1.031.16.415.239.909.239 1.483v.473h-5.365v-1.04h3.886a1.649 1.649 0 0 0-.191-.788 1.4 1.4 0 0 0-.524-.55 1.482 1.482 0 0 0-.776-.2c-.315 0-.592.077-.831.23-.239.151-.425.35-.558.597a1.715 1.715 0 0 0-.201.805v.908c0 .38.07.707.209.98.139.27.334.477.584.622.25.142.543.213.878.213.224 0 .427-.031.609-.094.182-.065.34-.16.473-.285.134-.125.235-.28.303-.465l1.44.162a2.24 2.24 0 0 1-.52.997c-.253.282-.576.5-.971.657-.395.153-.847.23-1.355.23zm3.67-5.408v-1.265h5.727v1.265h-2.118v5.28h-1.491v-5.28h-2.118z"/><rect width="338.5" height="38.5" x="18.75" y="247.75" stroke="#006FFD" stroke-width="1.5" rx="11.25"/><defs><linearGradient id="b" x1="23.5" x2="358" y1="47.5" y2="235" gradientUnits="userSpaceOnUse"><stop offset=".406" stop-color="#006FFD"/><stop offset="1" stop-color="#00D1FF"/></linearGradient><clipPath id="a"><rect width="340" height="195" x="18" y="40" fill="#fff" rx="18"/></clipPath></defs></svg>